<svg width="319" height="300" viewBox="0 0 319 300" fill="none" xmlns="http://www.w3.org/2000/svg">
<path d="M155.122 290.558L17.545 189.107C13.1667 186.042 9.41049 180.997 13.6771 177.704L151.756 78.4126C153.83 76.8105 156.972 75.7657 159.077 77.2882L303.481 181.843C307.859 185.017 308.648 193.884 304.278 197.058L173.257 290.398C170.506 292.389 167.386 293.451 164.206 293.479C161.026 293.507 157.895 292.5 155.122 290.558Z" fill="#E5E5E5"/>
<path opacity="0.32" d="M257.026 182.44C246.531 190.073 239.035 195.207 222.893 206.701C235.111 215.965 245.79 222.762 247.161 223.777L282.251 198.899C279.404 197.078 270.089 190.5 257.026 182.44Z" fill="url(#paint0_linear_3_5)"/>
<path opacity="0.32" d="M120.423 204.203C107.774 213.408 98.7385 219.587 79.2875 233.439C94.0093 244.604 106.881 252.804 108.54 254.018L150.807 224.075C147.418 221.846 136.197 213.915 120.423 204.203Z" fill="url(#paint1_linear_3_5)"/>
<path opacity="0.32" d="M43.2803 193.735C49.8438 188.281 56.5188 183.027 63.154 177.723L53.7276 169.136L17.218 188.142C21.6282 191.028 27.5855 196.431 33.8539 201.934C36.9721 199.158 40.0903 196.382 43.2803 193.735Z" fill="url(#paint2_linear_3_5)"/>
<path d="M66.7348 147.273C66.6806 146.992 66.5801 146.728 66.4397 146.497C66.1821 146.106 65.8751 145.77 65.5306 145.502C60.8971 141.591 54.4772 140.527 49.5806 144.338C48.4641 145.214 46.7973 147.194 47.4592 149.065C47.842 150.149 49.0064 150.786 49.8517 151.224C52.54 152.564 55.3494 153.49 58.2175 153.98C59.2543 154.199 60.307 154.418 61.3517 154.538C62.0744 154.624 62.8031 154.483 63.4706 154.127C64.1381 153.77 64.7231 153.21 65.1717 152.498C65.8974 151.314 67.0618 149.005 66.7348 147.273Z" fill="#754C24"/>
<path d="M47.3237 148.209C47.3237 148.209 51.5504 152.985 58.8555 152.289C66.1606 151.592 66.7268 147.313 66.7268 147.313C66.7268 147.313 64.8368 177.524 63.8399 178.042C62.843 178.559 59.1107 180.808 57.3084 180.977C55.506 181.147 49.8119 178.301 49.6683 177.514C49.5248 176.728 47.3237 148.209 47.3237 148.209Z" fill="#FCBF81"/>
<path d="M48.6475 104.225C48.4242 103.658 47.7304 104.156 47.9617 104.723C52.962 117.301 53.9349 131.461 54.8361 145.214C54.876 145.841 55.6735 145.85 55.6336 145.214C54.7324 131.232 53.7276 116.923 48.6475 104.225Z" fill="#007F68"/>
<path d="M48.0175 104.305C48.0175 104.305 49.4131 110.833 47.9696 114.097C46.5262 117.361 45.3379 118.008 47.0605 122.058C48.7831 126.108 53.3926 126.655 53.6957 129.76C53.9987 132.864 51.4946 109.848 48.0175 104.305Z" fill="#007F68"/>
<path d="M64.0073 116.087C60.1563 126.136 57.9855 137.059 57.6273 148.189C57.6273 148.965 58.5764 148.955 58.6003 148.189C58.9384 137.27 61.052 126.552 64.8128 116.684C65.1159 115.997 64.2785 115.381 64.0073 116.087Z" fill="#007F68"/>
<path d="M64.6932 119.261C64.6932 118.605 64.5736 117.271 64.6294 116.167L64.0711 116.605C62.1731 122.366 59.334 135.899 58.4886 140.039C59.645 136.934 64.3742 136.506 65.7618 132.078C66.3742 130.199 66.4026 128.102 65.8416 126.197C65.1572 123.979 64.7692 121.636 64.6932 119.261Z" fill="#007F68"/>
<path opacity="0.32" d="M171.136 231.717C183.991 223.08 214.416 203.984 227.176 195.148L153.742 137.82L100.756 182.709C114.202 191.486 152.53 217.358 171.136 231.717Z" fill="url(#paint3_linear_3_5)"/>
<path d="M109.162 135.074C109.218 156.299 109.313 175.405 109.313 175.405C109.313 175.405 109.672 177.136 112.232 175.723V133.8C111.211 134.228 110.191 134.636 109.162 135.074Z" fill="#5B434D"/>
<path d="M180.291 186.659C180.347 207.885 180.442 226.991 180.442 226.991C180.442 226.991 180.801 228.722 183.361 227.309V185.425C182.34 185.824 181.32 186.261 180.291 186.659Z" fill="#5B434D"/>
<path d="M224.097 154.498C224.153 175.723 224.249 194.829 224.249 194.829C224.249 194.829 224.608 196.561 227.168 195.148V153.264C226.155 153.682 225.134 154.1 224.097 154.498Z" fill="#5B434D"/>
<path d="M108.564 133.8V137.412L181.966 190.401L227.104 153.413L227.176 149.373" fill="#A5DD73"/>
<path opacity="0.76" d="M108.564 133.8V137.412L181.966 190.401L227.104 153.413L227.176 149.373" fill="#34323D"/>
<path d="M108.564 133.8L155.792 100.185L227.176 149.373L181.71 186.779L108.564 133.8Z" fill="#A5DD73"/>
<path d="M174.102 116.306L164.157 122.277C163.782 122.501 163.463 122.849 163.234 123.283C163.006 123.717 162.876 124.22 162.86 124.739C162.844 125.258 162.941 125.773 163.141 126.228C163.342 126.683 163.638 127.061 163.998 127.322L187.58 144.487C188.09 144.858 188.695 144.968 189.268 144.796C189.842 144.623 190.34 144.181 190.658 143.562L196.384 132.446" fill="#56403D"/>
<path d="M224.097 84.4927L142.856 26.1103C142.454 25.8123 141.996 25.653 141.528 25.6486C141.06 25.6443 140.6 25.7952 140.194 26.0857C139.789 26.3762 139.452 26.7961 139.219 27.3022C138.986 27.8083 138.865 28.3826 138.869 28.9662V90.9907C138.87 91.4367 138.964 91.8745 139.144 92.2604C139.323 92.6464 139.58 92.9669 139.889 93.1898L226.33 155.453C226.48 155.562 226.65 155.62 226.823 155.62C226.996 155.62 227.166 155.564 227.316 155.456C227.466 155.347 227.59 155.192 227.676 155.004C227.762 154.817 227.807 154.604 227.806 154.388V92.6127C227.811 90.9727 227.471 89.3597 226.821 87.9349C226.17 86.51 225.231 85.3231 224.097 84.4927Z" fill="white"/>
<path d="M144.268 31.5833L221.195 86.8113C222.016 87.4009 222.699 88.2504 223.174 89.2742C223.648 90.298 223.898 91.4598 223.898 92.6425V137.123C223.899 137.55 223.81 137.97 223.639 138.34C223.469 138.71 223.224 139.017 222.928 139.231C222.632 139.445 222.296 139.558 221.954 139.558C221.612 139.559 221.275 139.446 220.979 139.233L142.529 83.0697C142.236 82.8596 141.992 82.5567 141.823 82.1915C141.653 81.8264 141.564 81.4119 141.564 80.9899V33.5735C141.561 33.1763 141.641 32.7849 141.797 32.4389C141.954 32.0928 142.18 31.8043 142.455 31.6025C142.729 31.4007 143.041 31.2926 143.359 31.2892C143.677 31.2859 143.991 31.3873 144.268 31.5833Z" fill="#200A52"/>
<path d="M177.455 115.306C177.909 115.197 178.277 115.105 178.276 115.099C178.275 115.094 177.906 115.178 177.452 115.287C176.998 115.396 176.63 115.489 176.631 115.494C176.632 115.5 177.001 115.416 177.455 115.306Z" fill="#AB643C"/>
<path d="M218.06 89.3289C218.523 89.3289 218.898 88.821 218.898 88.1945C218.898 87.568 218.523 87.0601 218.06 87.0601C217.598 87.0601 217.223 87.568 217.223 88.1945C217.223 88.821 217.598 89.3289 218.06 89.3289Z" fill="#659FE4"/>
<path d="M215.389 87.6671C215.851 87.6671 216.226 87.1592 216.226 86.5326C216.226 85.9061 215.851 85.3982 215.389 85.3982C214.926 85.3982 214.551 85.9061 214.551 86.5326C214.551 87.1592 214.926 87.6671 215.389 87.6671Z" fill="#C5E9FF"/>
<path d="M145.879 43.8728L193.051 77.3181" stroke="#00A99D" stroke-width="4.06" stroke-miterlimit="10"/>
<path d="M146.046 52.6197L153.686 58.033" stroke="#D4145A" stroke-width="4.06" stroke-miterlimit="10"/>
<path d="M155.943 59.864L198.402 88.9905" stroke="#29ABE2" stroke-width="4.06" stroke-miterlimit="10"/>
<path d="M145.879 60.6004L162.18 71.8152" stroke="#F7931E" stroke-width="4.06" stroke-miterlimit="10"/>
<path d="M164.883 73.9446L200.635 97.8071" stroke="#00A99D" stroke-width="4.06" stroke-miterlimit="10"/>
<path d="M146.557 122.356L129.418 134.576C129.24 134.705 129.091 134.891 128.988 135.115C128.885 135.338 128.831 135.592 128.831 135.85C128.831 136.108 128.885 136.361 128.988 136.585C129.091 136.808 129.24 136.994 129.418 137.123L177.045 171.285C177.622 171.7 178.277 171.918 178.943 171.918C179.609 171.918 180.264 171.7 180.841 171.285L196.879 159.732C197.066 159.598 197.222 159.404 197.33 159.171C197.438 158.938 197.495 158.673 197.495 158.404C197.495 158.134 197.438 157.869 197.33 157.636C197.222 157.403 197.066 157.209 196.879 157.075L148.71 122.356C148.383 122.117 148.012 121.992 147.633 121.992C147.255 121.992 146.883 122.117 146.557 122.356Z" fill="#200A52"/>
<path d="M172.451 141.84L167.563 145.462L171.191 148.089L176.104 144.487L172.451 141.84Z" fill="white"/>
<path d="M167.092 137.949L162.204 141.572L166.805 144.905L171.718 141.303L167.092 137.949Z" fill="white"/>
<path d="M147.617 123.839L142.649 127.401L147.067 130.606L151.98 127.003L147.617 123.839Z" fill="white"/>
<path d="M158.088 131.431L153.2 135.074L156.828 137.701L161.741 134.098L158.088 131.431Z" fill="white"/>
<path d="M152.729 127.541L147.841 131.163L152.434 134.496C152.976 134.108 156.055 131.839 157.347 130.894L152.729 127.541Z" fill="white"/>
<path d="M176.846 145.025L171.957 148.647L175.434 151.164L180.339 147.562L176.846 145.025Z" fill="white"/>
<path d="M162.483 134.616L157.594 138.238L161.438 141.024L166.351 137.422L162.483 134.616Z" fill="white"/>
<path d="M181.088 148.089L176.2 151.712L180.801 155.045L185.714 151.443L181.088 148.089Z" fill="white"/>
<path d="M186.448 151.98L181.551 155.592L189.805 161.573L194.773 158.011L186.448 151.98Z" fill="white"/>
<path d="M142.019 128.456L137.05 132.019L143.478 136.676L148.391 133.073L142.019 128.456Z" fill="white"/>
<path d="M154.492 137.492L149.603 141.114L153.232 143.741L158.144 140.139L154.492 137.492Z" fill="white"/>
<path d="M163.487 144.029L158.599 147.652L163.2 150.985L168.113 147.383L163.487 144.029Z" fill="white"/>
<path d="M158.886 140.676L153.997 144.298L157.841 147.084L162.754 143.482L158.886 140.676Z" fill="white"/>
<path d="M168.855 147.9L163.966 151.522L167.595 154.15L172.499 150.547L168.855 147.9Z" fill="white"/>
<path d="M173.249 151.085L168.36 154.707L171.837 157.224L176.742 153.622L173.249 151.085Z" fill="white"/>
<path d="M149.132 133.611L144.244 137.233L148.837 140.566L153.75 136.964L149.132 133.611Z" fill="white"/>
<path d="M177.484 154.16L172.595 157.782L177.197 161.115L182.101 157.513L177.484 154.16Z" fill="white"/>
<path d="M177.954 161.663L184.199 166.19L189.175 162.628L182.843 158.04L177.954 161.663Z" fill="white"/>
<path d="M174.294 161.036L170.657 163.742L174.876 166.787L178.568 164.14L174.294 161.036Z" fill="white"/>
<path d="M175.753 167.424L179.342 170.011L183.042 167.374L179.382 164.727L175.753 167.424Z" fill="white"/>
<path d="M135.886 133.203L132.074 135.85L136.396 138.964L140.137 136.288L135.886 133.203Z" fill="white"/>
<path d="M140.942 136.875L137.266 139.601L141.883 142.935L145.616 140.258L140.942 136.875Z" fill="white"/>
<path d="M146.429 140.845L142.76 143.572L169.78 163.105L173.48 160.449L146.429 140.845Z" fill="white"/>
<path d="M270.903 201.795C279.196 201.795 285.92 197.647 285.92 192.53C285.92 187.414 279.196 183.266 270.903 183.266C262.609 183.266 255.886 187.414 255.886 192.53C255.886 197.647 262.609 201.795 270.903 201.795Z" fill="#68E1FD"/>
<path d="M285.928 167.852V193.048C285.928 193.048 274.763 205.984 255.886 193.257V167.852" fill="#68E1FD"/>
<path opacity="0.21" d="M274.204 192.282C270.057 196.262 265.049 198.153 259.913 198.829C263.336 200.895 267.102 201.918 270.903 201.815C278.878 201.815 285.393 197.974 285.872 193.118L285.92 193.068V167.852H285.641C283.113 176.868 280.449 186.232 274.204 192.282Z" fill="#200A52"/>
<path d="M270.903 177.216C279.196 177.216 285.92 173.068 285.92 167.952C285.92 162.835 279.196 158.687 270.903 158.687C262.609 158.687 255.886 162.835 255.886 167.952C255.886 173.068 262.609 177.216 270.903 177.216Z" fill="#663535"/>
<path d="M129.57 167.912C125.869 164.688 121.515 162.936 116.81 164.21C111.802 165.583 107.463 169.514 102.359 170.479C101.562 170.628 98.3318 170.37 97.8373 170.957C83.6338 187.734 123.357 185.933 123.357 185.933C127.209 181.953 130.838 178.121 134.666 174.141C133.501 170.957 131.587 169.683 129.57 167.912Z" fill="#F8997C"/>
<path d="M110.852 192.272L109.441 242.882C109.385 244.803 111.778 244.803 111.833 242.882L113.245 192.272C113.325 190.351 110.94 190.361 110.852 192.272Z" fill="#34323D"/>
<path d="M140.655 219.348C133.424 210.519 126.513 201.304 119.92 191.705C118.915 190.242 117.232 192.361 118.229 193.814C124.811 203.407 131.723 212.622 138.964 221.458C140.065 222.801 141.764 220.652 140.655 219.348Z" fill="#F8997C"/>
<path d="M102.59 187.595C96.976 200.816 91.6886 214.24 86.7281 227.866C86.0981 229.598 88.1556 231.12 88.7936 229.369C93.7541 215.743 99.0415 202.319 104.656 189.097C105.374 187.406 103.316 185.893 102.59 187.595Z" fill="#34323D"/>
<path d="M130.559 134.078C131.045 133.929 135.136 132.616 136.141 132.198C137.146 131.78 140.256 128.765 141.947 129.212C143.638 129.66 147.043 132.456 147.203 133.392C147.362 134.327 146.405 135.462 146.046 135.87C145.687 136.278 143.223 135.153 142.266 134.964C141.309 134.775 139.786 137.601 138.885 138.099C137.983 138.596 132.162 139.9 132.162 139.9" fill="#FCBF81"/>
<path d="M141.556 146.477C142.043 146.328 146.134 145.015 147.139 144.597C148.144 144.179 151.254 141.164 152.945 141.611C154.635 142.059 158.041 144.855 158.2 145.791C158.36 146.726 157.403 147.861 157.044 148.269C156.685 148.677 154.221 147.552 153.264 147.363C152.307 147.174 150.783 150 149.882 150.498C148.981 150.995 143.159 152.299 143.159 152.299" fill="#FCBF81"/>
<path d="M139.969 210.791C140.711 209.795 141.197 208.8 140.942 207.755C140.488 205.895 138.462 205.138 137.074 205.238C135.687 205.337 134.251 206.233 132.848 206.731C131.38 207.388 129.814 207.629 128.262 207.437C128.012 207.391 127.785 207.232 127.624 206.989C127.194 206.87 126.796 206.613 126.47 206.243C126.144 205.873 125.901 205.403 125.766 204.88L121.172 202.83C121.172 202.83 120 214.94 120.04 215.766C120.383 222.304 128.206 218.572 128.206 218.572C128.206 218.572 128.485 215.587 128.557 215.219C128.629 214.851 131.627 215.985 132.864 215.746C133.432 215.548 133.971 215.235 134.459 214.821C135.384 214.184 136.293 213.507 137.194 212.83C138.095 212.154 139.036 211.487 139.969 210.791Z" fill="#56403D"/>
<path d="M122.815 166.091C121.092 166.3 119.37 166.578 117.655 166.887C118.368 180.639 119.165 194.381 120.048 208.114C124.514 210.393 126.324 209.338 129.091 205.805C129.618 192.7 130.535 178.937 130.511 165.723C127.959 165.862 125.391 166.001 122.815 166.091Z" fill="#34323D"/>
<path d="M104.257 162.319C104.257 162.319 103.516 177.375 109.577 180.729C115.638 184.082 128.071 182.41 134.187 177.932C137.35 175.529 140.668 173.462 144.108 171.753C144.108 171.753 145.703 165.165 141.867 162.319C138.031 159.473 129.626 155.951 122.145 162.319" fill="#34323D"/>
<path d="M135.16 139.78C135.806 136.705 135.431 131.63 135.431 131.63C135.431 131.63 127.863 133.243 124.673 132.626C121.483 132.009 116.268 123.67 116.268 123.67L116.977 140.188C123.022 141.771 129.283 142.109 135.16 139.78Z" fill="#BA3E00"/>
<path d="M153.965 220.224C154.707 219.229 155.193 218.234 154.938 217.189C154.484 215.328 152.458 214.572 151.07 214.671C149.683 214.771 148.247 215.667 146.844 216.164C145.376 216.821 143.81 217.063 142.258 216.871C142.008 216.825 141.781 216.665 141.62 216.423C141.19 216.304 140.792 216.046 140.466 215.676C140.14 215.306 139.897 214.836 139.762 214.313L135.168 212.263C135.168 212.263 133.996 224.374 134.036 225.2C134.379 231.737 142.202 228.006 142.202 228.006C142.202 228.006 142.481 225.02 142.553 224.652C142.625 224.284 145.623 225.418 146.86 225.18C147.428 224.982 147.967 224.669 148.455 224.254C149.38 223.617 150.289 222.941 151.19 222.264C152.091 221.587 153.04 220.921 153.965 220.224Z" fill="#56403D"/>
<path d="M136.293 162.687C134.698 161.752 133.055 161.852 131.157 161.862C131.42 166.708 131.276 168.449 131.516 173.285L131.58 174.569C132.313 188.898 133.175 203.218 134.052 217.537C138.518 219.816 140.328 218.761 143.095 215.229C143.709 199.974 144.866 183.873 144.419 168.688C141.843 165.504 139.562 164.598 136.293 162.687Z" fill="#34323D"/>
<path d="M104.154 159.205C104.154 159.573 104.209 160.817 104.257 162.319C106.769 166.449 109.84 168.867 114.625 168.688C118.524 168.549 121.802 166.419 124.833 163.792C124.45 154.985 123.309 139.91 121.531 129.431C121.38 128.546 119.537 127.949 118.995 127.58C117.727 126.715 118.469 125.222 117.225 124.297C115.42 122.985 113.541 121.841 111.602 120.873H111.554C108.452 120.814 103.101 123.799 102.782 128.984C102.295 136.944 102.997 141.771 103.492 149.721C103.675 152.926 103.938 156.09 104.154 159.205Z" fill="#E55600"/>
<path d="M114.96 105.778C115.366 105.907 118.812 115.798 117.464 121.809C116.116 127.819 107.934 121.64 105.876 117.062C103.819 112.485 107.224 103.23 114.96 105.778Z" fill="#FCBF81"/>
<path d="M114.84 107.161C114.84 107.161 114.84 110.425 112.551 111.48C110.262 112.535 108.356 113.241 108.484 114.565C108.612 115.888 112.623 114.375 112.639 117.401C112.64 119.438 112.42 121.467 111.985 123.431C111.73 124.914 104.863 120.366 102.598 112.624C100.333 104.882 106.004 102.822 106.283 102.773C106.562 102.723 107.08 100.613 109.848 99.857C112.615 99.1007 113.412 100.454 113.412 100.454C114.044 99.9792 114.783 99.7756 115.516 99.8744C116.249 99.9733 116.936 100.369 117.472 101.001C120.032 103.539 119.386 108.176 116.483 110.057L114.84 107.161Z" fill="#34323D"/>
<path d="M146.421 144.029C142.856 144.955 135.615 146.428 133.055 145.025C131.069 143.94 124.442 126.207 117.24 124.307L116.268 137.84C116.268 137.84 126.452 153.96 131.157 155.622C134.578 156.826 143.789 155.214 147.833 153.463C148.008 150.22 147.522 146.975 146.421 144.029Z" fill="#E55600"/>
<path d="M123.86 148.199C123.341 147.363 117.44 139.024 117.44 139.024L124.53 157.145L123.86 148.199Z" fill="#34323D"/>
<path d="M134.108 173.882C131.892 177.735 128.753 180.61 125.144 182.092C120.088 184.012 112.735 183.087 110.079 176.509C105.246 164.509 109.784 149.483 104.68 137.81C104.091 136.335 103.258 135.031 102.237 133.985C101.216 132.939 100.029 132.174 98.7544 131.74C95.4448 130.834 93.1719 133.939 91.9757 137.591C89.8224 144.139 89.9022 152.289 90.0058 159.264C90.0112 164.899 90.339 170.525 90.9868 176.101C90.9868 176.101 94.0811 199.496 118.197 193.217C122.374 192.272 126.385 190.42 130.048 187.744C131.925 186.394 133.568 184.591 134.881 182.44C136.373 179.734 135.376 176.559 134.108 173.882Z" fill="#68E1FD"/>
<defs>
<linearGradient id="paint0_linear_3_5" x1="248.046" y1="208.014" x2="268.457" y2="192.912" gradientUnits="userSpaceOnUse">
<stop stop-color="#E5E5E5"/>
<stop offset="1" stop-color="#502019"/>
</linearGradient>
<linearGradient id="paint1_linear_3_5" x1="9911.11" y1="11932.6" x2="11149" y2="10291.9" gradientUnits="userSpaceOnUse">
<stop stop-color="#E5E5E5"/>
<stop offset="1" stop-color="#502019"/>
</linearGradient>
<linearGradient id="paint2_linear_3_5" x1="2075.15" y1="6322.12" x2="2860.45" y2="5435.52" gradientUnits="userSpaceOnUse">
<stop stop-color="#E5E5E5"/>
<stop offset="1" stop-color="#502019"/>
</linearGradient>
<linearGradient id="paint3_linear_3_5" x1="24111.6" y1="19857.2" x2="26468.5" y2="15626" gradientUnits="userSpaceOnUse">
<stop stop-color="#E5E5E5"/>
<stop offset="1" stop-color="#502019"/>
</linearGradient>
</defs>
</svg>
